# xmcd
#
# Track frame offsets:
# 150
# 18676
# 42252
# 62026
# 85528
# 106967
# 128733
# 144365
# 163743
# 183185
# 203599
# 222761
# 242656
# 268047
# 294159
# 312996
#
# Disc length: 4435 seconds
#
#
# Revision: 0
# Processed by: cddbd v1.5.1PL2 Copyright (c) Steve Scherf et al.
# Submitted via: FreeRIP 2.92 
#
DISCID=da115110
DTITLE=Various Artist - Monster Ballads-Platinum Edition [cd1]
DYEAR=2006
DGENRE=Ballad
TTITLE0=Warrant - Heaven
TTITLE1=Skid Row - I Remember You
TTITLE2=White Lion - When the Children Cry
TTITLE3=Winger - Headed For A Heartbreak
TTITLE4=Damn Yankees - High Enough
TTITLE5=Firehouse - Love of A Lifetime
TTITLE6=Mr. Big - To Be With You
TTITLE7=Kix - Don't Close Your Eyes
TTITLE8=Bad English - When I See You Smile
TTITLE9=Europe - Carrie
TTITLE10=Enuff Znuff - Fly High Michelle
TTITLE11=Saigon Kick - Love Is On the Way
TTITLE12=Cheap Trick - the Flame
TTITLE13=Faster Pussycat - House of Pain
TTITLE14=Winger - Miles Away
TTITLE15=Bad Company - If You Needed Somebody
EXTD=
EXTT0=
EXTT1=
EXTT2=
EXTT3=
EXTT4=
EXTT5=
EXTT6=
EXTT7=
EXTT8=
EXTT9=
EXTT10=
EXTT11=
EXTT12=
EXTT13=
EXTT14=
EXTT15=
PLAYORDER=
